<svg xmlns="http://www.w3.org/2000/svg" width="330.276" height="70.648" viewBox="0 0 330.276 70.648">
  <g id="Group_39205" data-name="Group 39205" transform="translate(-634 -510.029)">
    <path id="Path_275" data-name="Path 275" d="M490.233,262.769c-2.6-.029-5.3-.806-5.047-3.372.2-2,.3-2.37-1.491-3.023a7.413,7.413,0,0,0-4.691.2,25.263,25.263,0,0,1-4.979.946,25.448,25.448,0,0,0-4.706,1.161c-.227.087-1.123.293-1.339.15a7.588,7.588,0,0,1-3.449-2.5,2.288,2.288,0,0,1-.584-2.456,14.419,14.419,0,0,0,.678-4.063q.113-4.857-.06-9.719c-.075-2.1-.327-4.207-.611-6.3a3.353,3.353,0,0,1,.992-3.332,1.459,1.459,0,0,1,2.365.238,5.681,5.681,0,0,0,1.821,1.393c1.629,1,3.112,2.261,3.52,4.315.245,1.23.388,1.384,1.638,1.274a15.044,15.044,0,0,0,5.637-1.407,4.829,4.829,0,0,1,4.094-.3c1.759.642,2.638-.107,2.389-1.982-.17-1.284-.625-2.529-.911-3.8a2.181,2.181,0,0,1,.046-1.029c.087-.308.362-.559.47-.865.115-.326.276-.768.143-1.007a1.042,1.042,0,0,0-.945-.222c-1.847.582-3.7,1.17-5.5,1.877-1.225.481-2.352,1.206-3.559,1.741-2.749,1.22-5.383.664-7.869-.749a3.6,3.6,0,0,1-1.328-1.635,1.6,1.6,0,0,1,.969-2.185,2.513,2.513,0,0,1,.562-.194c5.623-1.054,10.558-3.94,15.808-5.983a3.471,3.471,0,0,0,1.605-1.51,6.036,6.036,0,0,1,3.524-2.725,4.176,4.176,0,0,1,2.463.272,5.545,5.545,0,0,1,1.7,1.172c1.549,1.335,3.058,2.717,4.6,4.06a3.272,3.272,0,0,1,1.189,2.621,1.969,1.969,0,0,1-.55,1.371,4.336,4.336,0,0,0-1.583,3.773q.029,5.111.03,10.222c0,1.952-.1,3.906-.033,5.855.062,1.775.161,3.786.077,5.562a23.576,23.576,0,0,1-1.106,6.49C495.112,260.452,493.262,262.8,490.233,262.769Zm-6.707-14.661c1.4.32,2.151-.452,2.067-1.576a9.738,9.738,0,0,0-.8-3.114,1.423,1.423,0,0,0-2.343-.382c-1.2,1.485-2.841,1.671-4.523,1.812-1.348.113-2.712.078-4.05.256-1.368.182-1.656.695-1.8,2.047a22.783,22.783,0,0,1-.638,2.732,1.563,1.563,0,0,0-.08.665A2.149,2.149,0,0,0,474.518,252c1.355-.751,2.642-1.626,3.958-2.448C480.106,248.533,481.568,247.66,483.526,248.108Z" transform="translate(354.786 305.866)" fill="#e60012"/>
    <g id="Group_38329" data-name="Group 38329" transform="translate(865.671 510.029)">
      <path id="Path_276" data-name="Path 276" d="M607.626,221.461a23.567,23.567,0,0,0-2.972.042c-1.055.027-2.113.092-3.166.048a.98.98,0,0,1-.724-.6c-.065-.26.177-.653.352-.936a1.814,1.814,0,0,1,.548-.468c1.46-1.01,2.91-2.038,4.39-3.009,1.244-.816,1.957-2.609,1.372-3.614-.549-.942-2.663-1.719-3.58-1.262-.726.362-1.643.758-2.061-.054-.46-.894.361-1.626,1.022-2.113.854-.629,1.768-1.157,2.661-1.719a1.947,1.947,0,0,0,.932-2.487,7.324,7.324,0,0,0-.6-1.622,4.958,4.958,0,0,1-.765-3.341,13.694,13.694,0,0,0,.007-1.665,3.753,3.753,0,0,0-1.772-3.359c-1.527-.961-3.023-1.988-4.582-2.879a6.291,6.291,0,0,0-2.25-.739,2.028,2.028,0,0,0-2.1,1.365,2.272,2.272,0,0,0,.393,2.347,15.468,15.468,0,0,1,1.491,2.846,2.5,2.5,0,0,1-.859,3.108q-3.056,2.463-6.122,4.91c-1.273,1.015-1.338,1.74-.247,3.045a7.091,7.091,0,0,0,5.176,2.423c1.145.1,1.685,1.015,1.22,2.2a3.256,3.256,0,0,1-.974,1.347,9.972,9.972,0,0,1-2.109,1.2q-8.325,3.586-16.67,7.116c-3.982,1.676-7.829,3.788-12.071,4.641-1.211.243-1.606,1.631-.98,3.006,1.389,3.054,6.106,4.615,8.792,2.939,1.037-.647,2.109-1.228,3.178-1.808,1.337-.726,2.736-1.327,4.022-2.148,2.494-1.593,4.886-3.388,7.4-4.935a56.17,56.17,0,0,1,5.577-2.854,1.713,1.713,0,0,1,1.549-.126c.109.071.1.246.145.37-3.781,4.27-7.01,8.092-6.255,8.722,2.22,1.16,4.314-.343,6.379.351-.06.27-.1.479-.153.686-.789,3.139-3.4,4.044-5.57,5.213a4.124,4.124,0,0,0-2.414,2.791c-.266.973.058,1.3.792,1.221a11.942,11.942,0,0,0,2.8-.55,37.717,37.717,0,0,0,5.008-2.077c1.607-.85,3.238-.249,3.477.983a2.187,2.187,0,0,1-1.007,1.892c-2.931,1.7-5.4,3.494-8.594,5.256-2.9,1.6-8.289,5.127-8.58,5.354a1.076,1.076,0,0,0-.4,1.031,1.25,1.25,0,0,0,.886.685c3.578.354,6.411-.975,9.951-2.682.438-.211,3.618-1.653,4.551-1.962a19.2,19.2,0,0,0,1.931-.725,17.427,17.427,0,0,1,.08,2.579c-.1,1.171-.4,2.32-.535,3.49a1.353,1.353,0,0,0,1.079,1.594c1.976.554,3.582-.357,4.256-2.515a31.75,31.75,0,0,0,1.007-3.942c.655-3.719,1.737-7.139,4.637-9.483a1.324,1.324,0,0,0,.216-1.782c-.789-1.515-1.855-2.352-3.5-2.093-.415.065-1.086.157-1.3-.241-.248-.458.281-1.045.553-1.461.661-1.016,1.426-1.948,2.1-2.954.823-1.227.761-1.844-.176-2.759-1.346-1.314-1.318-1.542.308-2.489a8.311,8.311,0,0,0,1.051-.621,26.2,26.2,0,0,0,2.74-2.341,1.893,1.893,0,0,0,.3-1.574A1.686,1.686,0,0,0,607.626,221.461Z" transform="translate(-562.296 -191.666)" fill="#e60012"/>
      <path id="Path_277" data-name="Path 277" d="M712.454,250.364c-7.268-2.348-14.542-4.672-21.8-7.053-3.233-1.061-6.445-2.2-9.643-3.392-.536-.2-.949-.815-1.419-1.239.359-.5.629-1.214,1.093-1.448a33.962,33.962,0,0,1,5.582-2.457,8.342,8.342,0,0,0,4.785-3.3,3.6,3.6,0,0,0,.249-4.385,10.173,10.173,0,0,0-3.636-3.852c-1.359-.821-1.952-.527-2.7.967a34.22,34.22,0,0,1-2.028,3.218c-.714,1.1-1.454,2.171-2.162,3.272-.654,1.017-1.214,2.122-1.949,3.057a1.678,1.678,0,0,1-1.445.574c-.265-.061-.571-.984-.522-1.478a17,17,0,0,0-1-7.706,1.229,1.229,0,0,1,.755-1.731,16.125,16.125,0,0,0,2.683-1.418,49.742,49.742,0,0,0,11.164-10.414,11.833,11.833,0,0,0,1.633-2.629,2.424,2.424,0,0,0-.09-1.9,18.574,18.574,0,0,0-2.426-2.579,1.26,1.26,0,0,0-.819-.342,7.5,7.5,0,0,1-4.053-1.6c-1.258-.8-1.792-.728-2.765.536a13.828,13.828,0,0,1-5.023,4.075,30.685,30.685,0,0,0-6.949,5.073,1.808,1.808,0,0,0-.564,1.355,1.46,1.46,0,0,0,1.048.877,16.011,16.011,0,0,0,6.605-.021c.823-.237,1.08.148.912,1.076a5.2,5.2,0,0,1-2,3.057,1.151,1.151,0,0,1-1.8-.014,27.873,27.873,0,0,0-3.736-2.71,1.813,1.813,0,0,0-1.634.084c-.215.125-.135,1.046-.067,1.588.162,1.306.46,2.594.585,3.9.151,1.581.245,3.176.248,4.766.006,3.1-.068,6.205-.111,9.429-.279.018-.574.033-.868.056s-.595.04-.89.08c-.924.124-1.329.775-1.01,1.761a2.347,2.347,0,0,0,.74,1.136c1.449,1.031,1.555,2.572,1.328,4.208-.334,2.412-.632,4.841-1.152,7.2-.455,2.068-1.2,4.058-1.807,6.084-.451,1.5-.1,2.344,1.267,2.791a4.371,4.371,0,0,0,5.168-1.4,8.573,8.573,0,0,0,1.989-4.36q.432-2.788.882-5.572c.269-1.687,1.09-2.342,2.518-1.919a8.41,8.41,0,0,1,2.03.863c4.372,2.692,8.742,5.389,13.078,8.152,2.631,1.677,5.3,2.44,8.347,1.545a20.935,20.935,0,0,1,8.047-1,11.831,11.831,0,0,0,3.162-.133,2.817,2.817,0,0,0,2.542-2.253C714.854,251.8,713.929,250.841,712.454,250.364Z" transform="translate(-616.223 -197.06)" fill="#e60012"/>
    </g>
    <g id="Group_38330" data-name="Group 38330" transform="translate(715.605 510.042)">
      <path id="Path_278" data-name="Path 278" d="M366.3,237.139a4.551,4.551,0,0,0-1.128-.762,34.574,34.574,0,0,0-6.25-2.411c-5.683-1.809-11.394-3.532-17.1-5.257-2.387-.72-4.816-1.3-7.19-2.059-1.139-.365-1.214-.794-.452-1.721q2.332-2.837,4.757-5.594a2.408,2.408,0,0,0,.748-2.395c-.617-2.352-.579-2.362-3.035-2.559-1.222-.1-1.513-.64-.99-1.795a5.559,5.559,0,0,0,.588-1.545c.177-1.5.222-3.023.373-4.531a1.617,1.617,0,0,0-.767-1.846c-.785-.436-1.274.049-1.669.549-1.79,2.26-3.536,4.556-5.293,6.843a15.636,15.636,0,0,1-1.191,1.559c-.257.258-.689.6-1.059.474a.326.326,0,0,1-.182-.3c0-.347.374-.58.543-.881.532-.951.366-1.411-.646-1.825-1.449-.592-1.5-.875-.54-2.18A20.259,20.259,0,0,1,333.2,202.6c1.241-.612,1.4-1.29.665-2.456a3.614,3.614,0,0,0-2.145-1.894,1.181,1.181,0,0,1-.688-.507c-.645-1.16-1.682-1.209-2.786-1.1-.709.073-1.416.167-2.123.26a1.92,1.92,0,0,1-2.215-1.216,4.6,4.6,0,0,0-3.3-2.649c-.9-.259-1.75-.691-2.653-.914a11.3,11.3,0,0,0-2.924-.428c-1.1.026-1.322.658-.574,1.468.8.864,1.737,1.593,2.531,2.461a2.233,2.233,0,0,1,.544,1.353c.015,1.078-.208,2.161-.185,3.238.036,1.706-.191,2.088-1.8,2.694-1.851.7-3.7,1.4-5.52,2.184-2.328,1-4.61,2.108-6.942,3.095a5.491,5.491,0,0,1-4.238.446,1.887,1.887,0,0,0-1.3.167c-.344.158-.775.528-.815.849a1.369,1.369,0,0,0,.61.992c1.381.924,2.8,1.792,4.221,2.65a3.727,3.727,0,0,0,3.786-.021c2.285-1.077,4.636-2.012,6.981-2.952a3.7,3.7,0,0,1,2.937.14c.578.253.8.68.452,1.157a10.64,10.64,0,0,1-1.88,2.048c-.786.621-1.764.986-2.572,1.584a2.061,2.061,0,0,0-.739,1.274c-.117.994-.023,2.012-.067,3.018-.045,1.033.426,1.749,1.38,1.82a16.483,16.483,0,0,0,2.814-.29c.381-.039,1.013-.167,1.11,0a15.5,15.5,0,0,1,.917,3.021,5.919,5.919,0,0,1-1.087,5.088,3.282,3.282,0,0,0-.715,1.053c-.184.655-.51,1.556-.231,1.988a3.2,3.2,0,0,0,1.932,1.066,2.176,2.176,0,0,0,1.493-.546,4.877,4.877,0,0,0,2-3.063c.2-1.139.359-2.286.619-3.41.064-.278.577-.726.665-.678a36.7,36.7,0,0,1,3.3,2c.377.26.306.645-.176.923a14.28,14.28,0,0,0-1.661,1.176c-.452.354-.96.656-.726,1.443.239.8.675,1.326,1.493,1.269.928-.065,1.13.487,1.293,1.22.535,2.415.143,4.811-.12,7.206a1.431,1.431,0,0,1-1.672,1.168c-.753-.124-1.493-.331-2.432-.545.661-.547,1.219-1.02,1.789-1.477a1.894,1.894,0,0,0,.819-1.685,3.318,3.318,0,0,0-3.524-3.274,16.842,16.842,0,0,0-3.507,1.072c-1.943.722-3.835,1.6-5.805,2.225a2.775,2.775,0,0,1-2.182-.325,2.96,2.96,0,0,0-3.366-.109c-1.262.609-1.439,1.058-.9,2.344.762,1.812,1.621,3.489.45,5.6-.772,1.389-.865,3.156-1.381,4.714-.3.92-.87,1.747-1.261,2.643-.2.465-.666,1.035-.417,1.483.284.512,1.167.549,1.656.427,1.576-.392,2.328-1.51,3.329-3,.521-.774.941-1.515,1.421-2.272a6.821,6.821,0,0,0,.376-.729c.32-.686.595-1.275.806-1.875.655-1.857,1.866-2.672,1.1-4.447a3.483,3.483,0,0,1-.117-.379c-.354-1.187.1-1.8,1.308-1.659a4.233,4.233,0,0,0,3.175-.513,1.6,1.6,0,0,1,.84-.2c.721-.027.984.385.564,1a5.6,5.6,0,0,1-1.354,1.4c-1.7,1.2-1.955,2.832-1.506,4.726.3,1.28.817,1.594,2.106,1.372,1.49-.256,2.986-.484,4.485-.666a40.292,40.292,0,0,1,4.064-.353c1.533-.03,1.839.467,1.693,2a27.428,27.428,0,0,0-.276,5.5,26.46,26.46,0,0,1,.408,5.9c-.022.194-.049.462.054.58.279.321.587.732.956.833a2.432,2.432,0,0,0,2.273-1.376c.538-1.7,1.115-3.383,1.557-5.105.657-2.557,1.326-5.12.756-7.819a11.849,11.849,0,0,1-.194-2.562c.029-2.581.047-5.165.194-7.74a4.685,4.685,0,0,0-1.468-3.727c-.732-.749-1.519-1.444-2.238-2.206-.539-.571-.227-.873.388-1.374.365-.3.423-.2.7-.079,1.63.718,3.539,1.774,5.083,2.655,2.43,1.387,4.8,2.887,7.132,4.445,1.427.954,2.97,2.271,4.373,3.257a7.448,7.448,0,0,0,4.606,1.253c3.41.143,10.747-1.005,13.035-1.333a8.345,8.345,0,0,0,3.517-1.026A1.565,1.565,0,0,0,366.3,237.139Zm-36.8-13.751c-.6,1.054-.6,1.423-2.243.945-.746-.218-.97-.181-1.756-.4a33.074,33.074,0,0,0-4.041-.816,3.031,3.031,0,0,1-1.828-2.96,2.049,2.049,0,0,1,.677-.785,22.187,22.187,0,0,0,3.161-1.554,2.053,2.053,0,0,1,1.495-.371.393.393,0,0,1,.269.315c.094.565-.426,1.061-.615,1.6-.215.615-.458,1.072-.3,1.515.456,1.3.916,1.715,2.7,1.8a3.9,3.9,0,0,0,1.807-.8.671.671,0,0,1,1.054.448A2.887,2.887,0,0,1,329.5,223.389Z" transform="translate(-273.615 -191.694)" fill="#e60012"/>
      <path id="Path_279" data-name="Path 279" d="M271.948,258.547c.3-.935.482-1.672.761-2.808.068-.392.3-1.147.1-1.3-.242-.19-.681.14-1.149.587a21.618,21.618,0,0,0-1.786,2.121c-1.621,2.014-11.871,16.092-13.281,17.9-1.5,1.925-3.085,3.716-5.933,2.439-.92-.413-1.464.477-1.95,1.124a1.346,1.346,0,0,0,.052,1.822,2.07,2.07,0,0,1,.427,2.019c-.2,1.124-.058,1.486,1.053,1.594a5.326,5.326,0,0,1,2.875,1.484,6.226,6.226,0,0,0,2.938.868,5.172,5.172,0,0,0,4.713-2.345c1.613-2.631,6.5-13.416,7.01-14.786,1.015-2.7,2.015-5.338,3.15-8C271.309,260.362,271.649,259.481,271.948,258.547Z" transform="translate(-248.376 -224.414)" fill="#e60012"/>
      <path id="Path_280" data-name="Path 280" d="M305.2,251.618c.966-1.771,1.191-3.618-.976-4.982a1.786,1.786,0,0,1-.612-2.363c.256-.676.472-1.37.679-2.065a2.024,2.024,0,0,0-1.957-2.392A3.359,3.359,0,0,0,299.314,243c-.04,2.156-.994,3.941-1.85,5.779a3.579,3.579,0,0,1-1.1,1.331,2.558,2.558,0,0,0-.995,2.611c.091.834.6,1.334,1.379,1.15a13.643,13.643,0,0,0,2.172-.963,9.1,9.1,0,0,1,.931-.3,5.482,5.482,0,0,1,.247,1,1.492,1.492,0,0,1-.2.753c-1.174,2.165-2.275,4.378-3.574,6.463a20.833,20.833,0,0,1-5.277,5.634c-.842.631-.827,1.064.019,1.667a7.041,7.041,0,0,0,1.238.532,8.15,8.15,0,0,0,2.208-1.138,28.581,28.581,0,0,0,4.331-4.8C301.127,259.134,303.155,255.366,305.2,251.618Z" transform="translate(-270.322 -216.809)" fill="#e60012"/>
      <path id="Path_281" data-name="Path 281" d="M264.019,210.815a11.081,11.081,0,0,1,1.464,1.6c.762.916,2.612,2.99,3.228,3.926,1.092,1.658,1.1,2.27,3.032,2.069a18.172,18.172,0,0,1,3.366-.24c.758.064,1.069-.143,1.305-.781.33-.893.854-1.553.348-2.7-.386-.88-1-.859-1.866-1.245a7,7,0,0,1-1.9-1.1c-1.538-1.405-2.951-2.955-4.516-4.326a2.241,2.241,0,0,0-1.858-.479,9.447,9.447,0,0,0-2.692,1.653A1,1,0,0,0,264.019,210.815Z" transform="translate(-256.294 -199.929)" fill="#e60012"/>
      <path id="Path_282" data-name="Path 282" d="M251.4,247.49a10.8,10.8,0,0,1,3.935,3.156c.809.99,1.566,2.031,2.44,2.957a1.879,1.879,0,0,0,2.858.155c.934-.711,1.846-1.455,2.807-2.128,1.077-.755,1.214-1.355.41-2.436a3.67,3.67,0,0,0-.882-.913,19.909,19.909,0,0,0-9.927-3.622c-.357-.005-.715-.039-1.069-.011-.827.067-1.841-.046-2.067,1.049S250.665,247.158,251.4,247.49Z" transform="translate(-249.159 -219.329)" fill="#e60012"/>
    </g>
    <g id="Group_38331" data-name="Group 38331" transform="translate(634 510.029)">
      <path id="Path_283" data-name="Path 283" d="M180.687,245.728A5.055,5.055,0,0,0,177.721,243a4.918,4.918,0,0,0-2.445-.549c-.537.089-5.256.5-7.281.823a2.9,2.9,0,0,1-1.629.055c-1.283-.466-1.252-1.722-1.132-3.095a12.513,12.513,0,0,0-.005-3.436c-.272-1.39-.282-1.513,1.144-1.894a7.066,7.066,0,0,0,2.449-1.012,16.945,16.945,0,0,0,2.82-2.773,6.881,6.881,0,0,0,1.17-2.363c.2-.668-.087-1.216-.977-1.318a15.23,15.23,0,0,1-1.824-.6c-.675-.169-1.375-.236-2.062-.358-.256-.045-.506-.121-.759-.183a2.813,2.813,0,0,1,.294-.845,3.412,3.412,0,0,1,.766-.577,38.343,38.343,0,0,1,8.521-4.7,4.044,4.044,0,0,0,2.434-2.933,1.784,1.784,0,0,0-.719-2.111,10.064,10.064,0,0,1-1.58-1.415,1.732,1.732,0,0,1,.585-2.86,2.076,2.076,0,0,0,.994-.951,38.777,38.777,0,0,0,1.211-4.363,1.624,1.624,0,0,0-.425-1.341,19.592,19.592,0,0,0-2.473-1.577c-1.053-.633-1.61-.557-2.375.295-1.116,1.241-1.311,2.066-.568,2.971a1.611,1.611,0,0,1,.281,1.875,60.2,60.2,0,0,1-3.288,6.221,2.614,2.614,0,0,0-.24,2.992c.908,1.8.878,1.861-.651,3.207a3.836,3.836,0,0,1-1,.749c-.253.1-.818.038-.89-.116a1.876,1.876,0,0,0-2.324-1.048.7.7,0,0,1-.616-1.251c.674-.639,1.5-1.128,2.124-1.806a4.784,4.784,0,0,0,1.273-2.049c.338-1.64.16-3.325.509-5.022.491-2.39-.966-4.251-3.295-5.095a1.3,1.3,0,0,0-.74-.06,2.342,2.342,0,0,0-1.622,3.525,3.079,3.079,0,0,1-.139,3.454c-.683,1.014-1.382,2.022-2.14,2.981-1.536,1.945-3.174,3.812-4.662,5.792-1.118,1.488-1.242,1.621-2.721.523a8.163,8.163,0,0,1-1.285-1.57,9.539,9.539,0,0,1,1.489-1.1,4.679,4.679,0,0,0,2.682-2.356c.5-1.256,1-2.51,1.487-3.771a3.412,3.412,0,0,0-.171-2.794,23.256,23.256,0,0,1-1.031-3.1,1.235,1.235,0,0,1,.69-1.528,16.411,16.411,0,0,1,6.272-2.385c2.56-.315,5.113-.628,7.376-2.048a6.579,6.579,0,0,1,1.388-.353c1.212-.4,2.721-.672,2.993-2.111.545-2.9.007-4.658-2.906-5.8a1.841,1.841,0,0,0-2.077.314,6.689,6.689,0,0,1-4.107,1.736,14.018,14.018,0,0,0-7.209,3.448c-1.4,1.122-2.851,2.184-4.332,3.2-1.318.9-1.4,1.086-.58,2.424,1.3,2.111,1.259,2.486-.535,4.2-.395.378-.838.706-1.241,1.076a14.65,14.65,0,0,0-1.384,1.344c-1.9,2.274-3.768,4.568-5.642,6.86a13.407,13.407,0,0,0-1.465,1.909,2.482,2.482,0,0,0,1.709,3.865,5.349,5.349,0,0,1,3.266,2.2,48.894,48.894,0,0,0,3.389,4.217c1.144,1.279,2.4,1.106,3.167-.421a9.975,9.975,0,0,0,.784-2.55c.158-.806.195-1.732,1.023-2.06a11.768,11.768,0,0,1,3.49-.905,1.807,1.807,0,0,1,2.124,1.658c.136,1.495.171,3.014,2.095,3.8-.958.411-1.633.653-2.263.983a13.231,13.231,0,0,1-2.065,1.2,41.186,41.186,0,0,1-5.339,1.282,2.549,2.549,0,0,0-1.982,1.306,4.134,4.134,0,0,1-.921,1.19c-.9.691-1,1.294-.2,2.139,1.85,1.972,3.017,2.188,5.475,1.013.087-.042.169-.1.258-.132.965-.4,1.629-.04,1.66,1.006a21.3,21.3,0,0,1-.133,3.471c-.164,1.217.406,2.664-1.273,3.144-2.935.838-6.473,1.553-9.426,2.315a24.453,24.453,0,0,1-3.932.243c-.823.071-1.629.337-1.855,1.274-.221.918.83,2.182,1.483,3.3a4.976,4.976,0,0,0,2.278,2.218,6.5,6.5,0,0,0,3.477,1.2,7.041,7.041,0,0,0,2.818-.12,19.9,19.9,0,0,1,4.123-1.058c4.231-.811,8.479-1.563,12.749-2.118a62.494,62.494,0,0,1,7.039-.214,2.663,2.663,0,0,0,2.948-1.982,21.364,21.364,0,0,0,.775-3.082A1.691,1.691,0,0,0,180.687,245.728Z" transform="translate(-111.846 -191.667)" fill="#e60012"/>
      <path id="Path_284" data-name="Path 284" d="M111.617,200.548a10.644,10.644,0,0,0-6.515-3.637,1.638,1.638,0,0,0-2,.839c-.245.442.39.83.68,1.119a1.9,1.9,0,0,1,.719,1.519c.142,2.371-2,4.342-4.1,6.17-3.515,3.065-8.1,6.422-11.031,10.091a4.569,4.569,0,0,0-1.283,2.753c-.373,3.374,1.189,4.664,4.28,5.221a21.573,21.573,0,0,0,5.419.3c.309-.011.837.167.893.363a1.238,1.238,0,0,1-.269,1.028c-.811.824-1.707,1.563-2.557,2.35-.35.324-.671.681-1,1.033-.341.369-.7.738-1.018,1.1a4.446,4.446,0,0,0-.91,3.183c0,1.57.2,2.286,1.592,3.059a3.574,3.574,0,0,0,2.955.323c.311-.093.621-.118,1.276-.231-.861,1.536-.023,2.288.866,3.1a5.734,5.734,0,0,1,1.926,4.76,41.561,41.561,0,0,1-.351,4.911,9.447,9.447,0,0,1-1.326,2.949A1.367,1.367,0,0,1,98,253.4a1.914,1.914,0,0,0-2.674.473c-.432.49-.631.812-.337,1.4a2.738,2.738,0,0,1,.365,2.3.859.859,0,0,0,.347.766,5.589,5.589,0,0,0,4.385.335,14.627,14.627,0,0,0,7.545-6.616,2.343,2.343,0,0,1,1.582-1.264,2.241,2.241,0,0,0,1.273-.913c.845-1.355,1.594-2.771,2.345-4.182.909-1.71-.011-3.262-1.9-3.243a3.236,3.236,0,0,0-.482.025,2.689,2.689,0,0,1-2.46-.828,27.49,27.49,0,0,1-2.164-2.337c-1.028-1.322-.782-2.194.72-2.9.757-.357,1.507-.738,2.29-1.027,2.546-.938,3.9-2.948,4.864-5.318.4-.992.269-1.3-.763-1.482-1.678-.3-3.374-.5-5.056-.787a17.442,17.442,0,0,1-1.774-.487l-.017-.312c.291-.218,1.065-.96,1.35-1.167,2.292-1.66,3.722-2.335,5.533-4.113,1.4-1.371.783-2.746-1.036-3.442-1.645-.63-5.245-1.344-5.636-1.619-.954-.671.077-1.75,1.039-2.4.874-.589,1.895-1.279,2.4-1.679a8.169,8.169,0,0,0,3.278-4.517C113.8,204.7,113.416,202.547,111.617,200.548Zm-9.1,36.3a2.833,2.833,0,0,1-2.74-.3l4.022-1.618A2.162,2.162,0,0,1,102.513,236.85Z" transform="translate(-83.078 -194.367)" fill="#e60012"/>
      <path id="Path_285" data-name="Path 285" d="M88.262,297.841a4.519,4.519,0,0,0-2.306.04c-1.1.609-1.412-.1-1.763-.75a2.7,2.7,0,0,0-1.719-1.553c-.6-.152-.748-.6-.734-1.185a1.133,1.133,0,0,0-1.433-1.06,3.774,3.774,0,0,0-2.638,3.509c-.059,2.721.9,4.844,3.5,6a1.964,1.964,0,0,1,.335.191c1.739,1.233,2.837.734,4.4-1.12.45-.534.925-1.049,1.361-1.594a15.882,15.882,0,0,0,1.284-1.762C88.636,298.418,88.387,297.852,88.262,297.841Z" transform="translate(-77.667 -244.712)" fill="#e60012"/>
    </g>
  </g>
</svg>
